<?xml version="1.0" standalone="no"?>
<!DOCTYPE svg PUBLIC "-//W3C//DTD SVG 20010904//EN"
 "http://www.w3.org/TR/2001/REC-SVG-20010904/DTD/svg10.dtd">
<svg version="1.0" xmlns="http://www.w3.org/2000/svg"
 width="1393.000000pt" height="1393.000000pt" viewBox="0 0 1393.000000 1393.000000"
 preserveAspectRatio="xMidYMid meet">
<metadata>
Created by potrace 1.14, written by Peter Selinger 2001-2017
</metadata>
<g transform="translate(0.000000,1393.000000) scale(0.100000,-0.100000)"
fill="#000000" stroke="none">
<path d="M7746 13917 c-70 -18 -126 -86 -181 -217 -53 -127 -67 -162 -114
-266 -17 -39 -31 -73 -31 -77 0 -3 -14 -36 -31 -74 -35 -78 -28 -62 -112 -263
-36 -85 -97 -229 -135 -320 -145 -342 -264 -625 -397 -940 -75 -179 -147 -349
-161 -378 -13 -29 -24 -55 -24 -58 0 -3 -6 -20 -14 -37 -8 -18 -47 -108 -86
-202 -40 -93 -78 -183 -86 -200 -7 -16 -37 -88 -68 -160 -135 -322 -279 -663
-291 -690 -8 -16 -49 -113 -92 -215 -114 -269 -120 -219 96 -750 94 -234 176
-434 181 -445 5 -11 83 -202 174 -425 90 -223 203 -502 251 -620 114 -282 319
-787 545 -1345 100 -247 187 -461 193 -475 6 -14 11 -27 12 -30 1 -3 7 -18 14
-34 6 -15 45 -112 87 -215 41 -102 79 -195 83 -206 26 -60 45 -105 107 -260
59 -150 73 -175 115 -217 134 -132 368 -69 414 110 8 31 11 115 10 247 -2 110
-6 405 -10 655 -3 250 -8 586 -10 745 -12 869 -16 1140 -20 1435 -3 179 -8
485 -10 680 -3 195 -7 506 -10 690 -3 184 -7 513 -10 730 -3 217 -8 532 -10
700 -6 389 -15 1014 -20 1380 -4 342 -16 1161 -20 1386 -3 193 -16 244 -77
299 -22 20 -57 44 -77 52 -44 19 -132 24 -185 10z"/>
<path d="M8795 8572 c-73 -15 -141 -67 -179 -137 -20 -39 -21 -50 -20 -365 1
-179 5 -566 8 -860 4 -294 9 -701 11 -905 2 -203 7 -572 10 -820 3 -247 8
-637 10 -865 15 -1300 14 -1282 32 -1335 13 -42 36 -70 138 -170 116 -113 624
-611 875 -855 63 -62 263 -257 444 -434 181 -176 372 -364 426 -416 54 -52
245 -239 425 -415 180 -176 373 -365 430 -420 56 -55 201 -196 321 -314 245
-239 277 -261 373 -257 173 8 289 167 238 326 -8 25 -139 351 -290 725 -313
775 -689 1710 -801 1990 -42 105 -81 200 -86 213 -19 42 -130 317 -328 812
-61 151 -136 338 -167 415 -32 77 -68 167 -80 200 -13 33 -73 182 -133 330
-60 149 -212 524 -337 835 -125 311 -260 646 -300 745 -40 99 -165 410 -278
690 -113 281 -211 524 -217 540 -18 43 -33 81 -65 160 -15 39 -33 84 -41 100
-7 17 -35 86 -62 155 -99 249 -116 275 -202 313 -43 19 -112 28 -155 19z"/>
<path d="M6506 4513 c-1 -2 -541 -8 -1446 -18 -162 -2 -533 -6 -825 -10 -850
-10 -1154 -13 -1775 -20 -322 -3 -611 -8 -642 -10 -72 -4 -148 -44 -188 -98
-78 -106 -58 -274 43 -351 29 -23 198 -91 472 -191 50 -18 176 -65 280 -105
105 -39 370 -139 590 -221 220 -82 411 -154 425 -160 14 -6 221 -84 460 -174
599 -224 2219 -834 3305 -1243 242 -91 474 -178 515 -193 41 -15 172 -64 290
-108 118 -45 402 -151 630 -237 228 -85 426 -159 439 -165 23 -10 540 -204
756 -284 112 -41 177 -44 247 -11 127 61 183 233 115 349 -21 36 -223 237
-730 731 -56 54 -253 246 -437 426 -184 180 -381 372 -436 426 -56 55 -249
243 -428 419 -180 176 -380 371 -444 433 -65 63 -264 259 -445 435 -242 239
-342 330 -383 352 -56 29 -58 29 -221 30 -91 0 -166 -1 -167 -2z"/>
</g>
</svg>
